<?xml version="1.0" encoding="utf-8"?>
<!-- Generator: Adobe Illustrator 20.0.0, SVG Export Plug-In . SVG Version: 6.00 Build 0)  -->
<svg version="1.1" id="Layer_1" xmlns="http://www.w3.org/2000/svg" xmlns:xlink="http://www.w3.org/1999/xlink" x="0px" y="0px"
	 viewBox="0 0 285.9 40.2" style="enable-background:new 0 0 285.9 40.2;" xml:space="preserve">
<style type="text/css">
	.st0{fill:#FFFFFF;}
</style>
<title>7bf645e8-1c4f-44ff-bdb7-70bab784a2d1</title>
<g>
	<path class="st0" d="M46.4,32.7h4.4c3.9,0,7.4-1.6,7.4-7.1s-3.4-6.9-7.4-6.9h-4.4V32.7z M50,29.7v-7.8h1c2.8,0,3.6,1.2,3.6,3.8
		s-0.8,4-3.6,4C51,29.7,50,29.7,50,29.7z"/>
	<polygon class="st0" points="60,32.7 69.9,32.7 69.9,29.7 63.7,29.7 63.7,27.1 67.9,27.1 67.9,24.2 63.7,24.2 63.7,21.9 69.6,21.9 
		69.6,18.7 60,18.7 	"/>
	<path class="st0" d="M71.8,32.7h3.6v-4.4h1.4c2.6,0,5.8-0.6,5.8-4.8s-2.9-4.8-5.8-4.8h-5V32.7z M75.4,25.4v-3.6H77
		c1.7,0,2.1,0.7,2.1,1.8s-0.5,1.8-2.1,1.8C77,25.4,75.4,25.4,75.4,25.4z"/>
	<path class="st0" d="M81.8,32.7h3.3l0.9-2.6h4.2l0.8,2.6h3.7l-4.8-14.1h-3.4L81.8,32.7z M86.8,27.4l1.3-3.9l0,0l1.2,3.9H86.8
		L86.8,27.4z"/>
	<path class="st0" d="M96.1,32.7h3.6v-4.8h1l2.6,4.9h3.8l-2.9-5.4c1.8-0.6,2.7-1.9,2.7-4.1s-2.1-4.6-5.6-4.6h-5.2V32.7z M99.7,25
		v-3.2h1.5c1.5,0,2.1,0.4,2.1,1.6s-0.7,1.6-2.1,1.6L99.7,25L99.7,25z"/>
	<polygon class="st0" points="111.7,32.7 115.3,32.7 115.3,21.9 119.2,21.9 119.2,18.7 107.8,18.7 107.8,21.9 111.7,21.9 	"/>
	<path class="st0" d="M120.8,32.7h3.2v-8.8l0,0c0.2,1.2,0.5,2.4,0.8,3.6l1.4,5.3h3.2l1.4-5.3c0.3-1.1,0.5-2.3,0.7-3.4l0,0v8.7h3.5
		v-14h-4.9l-2.1,9.5l0,0l-2.4-9.5h-4.8L120.8,32.7L120.8,32.7z"/>
	<polygon class="st0" points="137.5,32.7 147.4,32.7 147.4,29.7 141.1,29.7 141.1,27.1 145.4,27.1 145.4,24.2 141.1,24.2 
		141.1,21.9 147.1,21.9 147.1,18.7 137.5,18.7 	"/>
	<polygon class="st0" points="149.2,32.7 152.5,32.7 152.5,24.9 152.6,24.9 157.7,32.7 161.1,32.7 161.1,18.7 157.8,18.7 
		157.8,26.6 157.7,26.6 152.8,18.7 149.2,18.7 	"/>
	<polygon class="st0" points="166.5,32.7 170.1,32.7 170.1,21.9 174,21.9 174,18.7 162.6,18.7 162.6,21.9 166.5,21.9 	"/>
	<path class="st0" d="M186.2,33c3.2,0,6.6-2.1,6.6-7.3s-3.4-7.3-6.6-7.3s-6.6,2.1-6.6,7.3S182.9,33,186.2,33z M186.2,30
		c-1.9,0-3-1.7-3-4.2s1.1-4.1,3-4.1s3,1.6,3,4.1S188.1,30,186.2,30z"/>
	<polygon class="st0" points="194.7,32.7 198.3,32.7 198.3,27.6 202.2,27.6 202.2,24.7 198.3,24.7 198.3,21.9 203.9,21.9 
		203.9,18.7 194.7,18.7 	"/>
	<polygon class="st0" points="210.6,32.7 214.4,32.7 214.4,27.1 219.1,27.1 219.1,32.7 222.9,32.7 222.9,18.7 219.1,18.7 
		219.1,23.9 214.4,23.9 214.4,18.7 210.6,18.7 	"/>
	<polygon class="st0" points="225.5,32.7 235.8,32.7 235.8,29.7 229.3,29.7 229.3,27.1 233.7,27.1 233.7,24.2 229.3,24.2 
		229.3,21.9 235.5,21.9 235.5,18.7 225.5,18.7 	"/>
	<path class="st0" d="M236.6,32.7h3.4l0.9-2.6h4.4l0.8,2.6h3.8l-5-14.1h-3.5L236.6,32.7z M241.8,27.4l1.3-3.9l0,0l1.3,3.9h-2.7
		H241.8z"/>
	<polygon class="st0" points="251.5,32.7 261.1,32.7 261.1,29.7 255.3,29.7 255.3,18.7 251.5,18.7 	"/>
	<polygon class="st0" points="264.3,32.7 268,32.7 268,21.9 272.1,21.9 272.1,18.7 260.2,18.7 260.2,21.9 264.3,21.9 	"/>
	<polygon class="st0" points="273.7,32.7 277.5,32.7 277.5,27.1 282.1,27.1 282.1,32.7 285.9,32.7 285.9,18.7 282.1,18.7 
		282.1,23.9 277.5,23.9 277.5,18.7 273.7,18.7 	"/>
</g>
<g>
	<polygon class="st0" points="25.9,7.1 25.9,14.2 33,14.2 33,25.9 40.1,25.9 40.1,7.1 	"/>
	<polygon class="st0" points="33,25.9 25.9,25.9 25.9,33 14.2,33 14.2,40.1 33,40.1 	"/>
	<polygon class="st0" points="14.2,33 14.2,25.9 7.1,25.9 7.1,14.2 0,14.2 0,33 	"/>
	<polygon class="st0" points="7.1,14.2 14.2,14.2 14.2,7.1 25.9,7.1 25.9,0 7.1,0 	"/>
</g>
<g>
	<path class="st0" d="M46.6,15.5V7.3h1.5v7.1h4.3v1h-5.8V15.5z"/>
	<path class="st0" d="M64,12.8c-0.1,0.5-0.4,1-0.7,1.4c-0.4,0.4-0.8,0.8-1.3,1c-0.6,0.3-1.3,0.4-2,0.4c-0.7,0-1.4-0.1-2-0.4
		c-1-0.4-1.8-1.3-2.1-2.3c-0.1-0.5-0.2-0.9-0.2-1.4c0-0.5,0.1-0.9,0.2-1.4c0.1-0.5,0.4-1,0.7-1.4c0.4-0.4,0.8-0.8,1.3-1
		c0.7-0.3,1.4-0.4,2.1-0.4l1.4,0.2L62.5,8l0.8,0.7l0.5,0.9c0.1,0.3,0.2,0.7,0.3,1C64.2,11.4,64.2,12.1,64,12.8z M62.6,10.3
		c-0.1-0.4-0.3-0.7-0.5-1c-0.2-0.3-0.5-0.6-0.9-0.8c-0.4-0.2-0.8-0.3-1.3-0.3l-1.1,0.2l-0.9,0.5l-0.4,0.5l-0.3,0.7
		c-0.1,0.2-0.1,0.5-0.1,0.7c0,0.2,0,0.5,0,0.7c0,0.3,0,0.7,0.1,1c0.1,0.4,0.3,0.7,0.5,1c0.2,0.3,0.6,0.5,0.9,0.7
		c0.4,0.2,0.8,0.3,1.3,0.3c0.5,0,0.9-0.1,1.3-0.3c0.4-0.2,0.7-0.5,0.9-0.8c0.2-0.3,0.4-0.6,0.5-1c0.2-0.7,0.2-1.3,0-2V10.3z"/>
	<path class="st0" d="M76.1,13.3c-0.1,0.4-0.2,0.8-0.5,1.2c-0.3,0.4-0.7,0.6-1.1,0.8c-0.6,0.2-1.3,0.3-1.9,0.3
		c-0.6,0-1.3-0.1-1.9-0.3c-0.4-0.2-0.8-0.4-1.1-0.8c-0.2-0.3-0.4-0.7-0.5-1.1C69,13,69,12.6,69,12.1V7.3h1.4v4.8
		c0,0.3,0,0.6,0.1,0.9c0,0.3,0.1,0.6,0.3,0.8c0.1,0.3,0.3,0.5,0.6,0.6l1.1,0.2l1.2-0.2c0.3-0.1,0.5-0.3,0.7-0.5
		c0.2-0.2,0.3-0.5,0.3-0.8c0.1-0.3,0.1-0.6,0.1-0.9V7.3h1.4V12C76.2,12.5,76.2,12.9,76.1,13.3z"/>
	<path class="st0" d="M81.3,15.5V7.3h1.5v8.1h-1.5V15.5z"/>
	<path class="st0" d="M94.4,14.1c-0.2,0.3-0.4,0.6-0.7,0.8l-1.1,0.5l-1.4,0.2c-0.9,0-1.9-0.2-2.7-0.7c-0.7-0.5-1.1-1.3-1.1-2.1h1.3
		c0,0.5,0.3,1,0.7,1.3c1,0.5,2.1,0.6,3.1,0.1c0.4-0.2,0.6-0.6,0.6-1c0.1-0.1,0.1-0.3,0.1-0.4l-0.3-0.4l-0.5-0.3l-0.6-0.2h-1l-1-0.3
		l-0.9-0.4l-0.7-0.6c-0.2-0.3-0.3-0.6-0.3-1c0-0.3,0.1-0.6,0.2-0.9c0.1-0.3,0.4-0.5,0.6-0.7l1-0.5L91,7.3c0.8-0.1,1.7,0.2,2.4,0.6
		c0.6,0.4,1,1.1,1,1.8H93c0-0.4-0.2-0.8-0.5-1.1c-0.4-0.3-0.9-0.4-1.4-0.4c-0.5,0-0.9,0.1-1.3,0.3c-0.3,0.2-0.5,0.5-0.5,0.8
		c0,0.1,0,0.3,0.1,0.4l0.4,0.3l0.5,0.2l0.6,0.2h1l1,0.3l0.9,0.4l0.7,0.7c0.2,0.3,0.3,0.6,0.3,1C94.8,13.3,94.7,13.8,94.4,14.1z"/>
	<path class="st0" d="M99.9,15.5V7.3h1.5v8.1h-1.5V15.5z"/>
	<path class="st0" d="M112.9,15.5l-1-2.4h-3.3l-0.9,2.4h-1.6l3.4-8.1h1.4l3.7,8.1H112.9z M110.8,10.6L110.2,9l-0.5,1.5l-0.6,1.5h2.4
		L110.8,10.6z"/>
	<path class="st0" d="M125,15.5l-4.3-5.8v5.8h-1.4V7.3h1.4l4.3,5.8V7.3h1.4v8.1H125V15.5z"/>
	<path class="st0" d="M138,15.5l-1-2.4h-3.3l-0.9,2.4h-1.6l3.4-8.1h1.4l3.7,8.1H138L138,15.5z M135.9,10.6l-0.6-1.5l-0.5,1.5
		l-0.6,1.5h2.4L135.9,10.6z"/>
</g>
</svg>
